<?xml version="1.0" encoding="UTF-8" standalone="no"?><svg xmlns="http://www.w3.org/2000/svg" xmlns:xlink="http://www.w3.org/1999/xlink" fill="#000000" height="1803.1" preserveAspectRatio="xMidYMid meet" version="1.1" viewBox="136.4 96.9 1741.4 1803.1" width="1741.4" zoomAndPan="magnify">
 <g fill="#000000" id="change1_1">
  <path d="m1428.7 1408.4c-3 2.7-7.3 4.2-13.6 4.9-4.8 0.4-11.5 0.6-20 0.6-7.2 0-12.8-0.1-16.9-0.4-4.5-0.3-8.1-0.9-10.8-1.8-3.5-0.9-6.3-2.6-8.2-4.7-1.6-1.8-2.8-3.9-3.9-6.3l-47.3-91-47.4 91.5c-1.1 2.2-2.4 4.2-3.8 5.8-1.9 2.1-4.7 3.8-8.3 4.8-2.7 0.8-6.3 1.4-10.9 1.7-4.2 0.3-9.7 0.4-16.5 0.4-8 0-14.1-0.2-18.5-0.6-6-0.7-10.3-2.4-12.9-5.4-2.2-2.3-4.4-6.7-2.4-13.6 1-3.6 3-8.1 6.1-13.7l66.7-121.7-61.9-114.1c-2.9-5.9-4.9-10.4-5.9-14-2.4-7.7 0.9-12.2 3.1-14.2 2.8-2.6 7.1-4.1 13.4-4.6 4.7-0.4 11.4-0.6 20-0.6 7.2 0 12.8 0.2 17 0.5 4.6 0.3 8.3 0.9 11 1.7 3.8 1.1 6.6 2.7 8.5 5 1.3 1.7 2.4 3.5 3.5 5.7l44 82.8 42.8-82.9c1-2.1 2.2-4 3.5-5.6 1.8-2.2 4.5-3.9 7.9-5 2.8-0.8 6.2-1.4 10.4-1.7 3.9-0.3 9.3-0.5 16.1-0.5 7.7 0 13.7 0.2 18.1 0.6 6 0.6 10.3 2.2 13.1 5 2 1.9 5 6.3 3 13.7-0.9 3.5-2.7 8-5.4 13.8l-62 113.8 66.1 122.4c2.9 5.6 4.8 10.1 5.7 13.8 2 7.5-1.3 11.9-3.4 13.9zm-307.6 0.2c-2.8 2.7-7 4.2-12.7 4.8-4.4 0.3-10.2 0.5-17.7 0.5-7.7 0-13.6-0.1-17.9-0.3-4.7-0.2-8.4-0.8-11.2-1.6-3.8-1.1-6.5-2.8-8.3-5.2-1.3-1.9-2.4-4.1-3.2-6.8l-17.6-52.6h-97.51l-16.58 51.1c-0.68 2.5-1.78 5-3.18 7-1.76 2.6-4.42 4.6-7.88 5.9-2.83 1.1-6.42 1.7-10.99 2.1-8.42 0.7-24.84 0.6-32.59-0.3-5.72-0.6-9.75-2.4-12.39-5.5-1.94-2.2-4.08-6.3-3.16-12.7 0.51-3.5 1.69-8 3.61-13.6l88.21-253.8c1.16-3.3 2.51-5.9 4.13-8 2.06-2.7 5.1-4.7 9.06-6 3.18-1 7.26-1.6 12.46-1.8 4.65-0.2 10.81-0.4 18.45-0.4 8.83 0 15.85 0.2 21.06 0.4 5.8 0.2 10.2 0.8 13.6 1.8 4.4 1.2 7.7 3.2 9.9 6.1 1.7 2.2 3.1 5.1 4.2 8.7l88.4 253.5c2 5.7 3.1 10.2 3.7 13.8 0.9 6.8-1.6 10.8-3.9 12.9zm-321.82-253.3c-0.44 3.7-1.14 6.6-2.1 9.1-1.2 2.9-2.82 5.2-4.84 6.8-2.32 1.9-5.07 2.9-7.97 2.9h-64.73v223.7c0 3-1.05 5.9-3.02 8.3-1.76 2.2-4.44 3.9-7.9 5.1-2.56 0.8-5.97 1.5-10.28 2-4.01 0.5-8.97 0.7-14.87 0.7-5.91 0-10.86-0.2-14.82-0.7-4.36-0.5-7.8-1.2-10.33-2-3.47-1.2-6.15-2.9-7.96-5.1-1.93-2.4-2.98-5.3-2.98-8.3v-223.7h-64.72c-3.15 0-6.01-1.1-8.29-3-1.84-1.6-3.34-3.8-4.52-6.7-0.97-2.5-1.66-5.4-2.11-9.1-0.38-3.2-0.6-7.2-0.6-11.8 0-4.7 0.22-8.8 0.6-12.1 0.44-3.7 1.14-6.7 2.11-9.1 1.19-3 2.77-5.3 4.81-6.9 2.2-1.7 4.98-2.6 8-2.6h201.61c2.77 0 5.45 0.9 7.72 2.5 2.16 1.6 3.87 3.9 5.1 7 0.95 2.4 1.66 5.4 2.09 9.1 0.4 3.3 0.61 7.4 0.61 12.1 0 4.6-0.21 8.6-0.61 11.8zm940.62 429.3c-14.3-8.8-19-25.3-18.7-42 13.5-712.75-354.7-934.28-547.6-1066.6-3.9-2.74-6.1-7.37-8.8-11.23-10.5-15.41-9.4-36.06 1.5-51.2l170.3-180.5c15.3-21.16 10.1-51.62-12.4-64.9-30.8-18.21-81-30.88-149.8 5.94-20.9 11.2-46.6 4.86-59.7-14.93-19.3-29-54.6-62.301-114.7-58.94-60.12-3.361-95.45 29.94-114.66 58.94-13.1 19.79-38.85 26.13-59.77 14.93-68.75-36.82-118.96-24.15-149.77-5.94-22.5 13.28-27.67 43.74-12.36 64.9l173.1 184.49c13.37 18.48 9.85 44.2-7.99 58.42-294.28 152.63-591.97 431.32-551.41 1044.4 1.98 29.9-11.23 59-35.45 76.6-47.99 34.8-105.26 99 0.83 163.4 2.47 1.7 4.94 2.8 7.42 3.6 37.63 14.3 312.66 122.8 748.41 136h3.25c435.8-13.2 710.8-121.7 748.5-136 2.4-0.8 4.9-1.9 7.4-3.6 120.3-73.1 30.5-145.9-17.6-175.8" fill="inherit"/>
  <path d="m952.37 1288.9h62.03l-31.02-93.1z" fill="inherit"/>
 </g>
</svg>