<?xml version="1.0" encoding="UTF-8"?><svg xmlns="http://www.w3.org/2000/svg" xmlns:xlink="http://www.w3.org/1999/xlink" clip-rule="evenodd" fill-rule="evenodd" height="201.1" image-rendering="optimizeQuality" preserveAspectRatio="xMidYMid meet" shape-rendering="geometricPrecision" text-rendering="geometricPrecision" version="1.0" viewBox="-9.4 6.1 229.7 201.1" width="229.7" zoomAndPan="magnify"><g id="change1_1"><path d="M126.47 6.1c0,0 -7.48,32.52 11.22,61.58 18.7,29.06 82.58,86.32 -7.77,139.56 0,0 19.13,-27.19 9.5,-45.75 -9.64,-18.56 -30.36,-32.37 -26.91,-61.43 0,0 -27.33,11.37 -15.25,62.87 0,0 -15.4,-5.61 -21.87,-20.79 0,0 -9.57,29.78 7.98,64.6 0,0 -92.8,-44.25 -17.98,-130.2 0,0 1.58,28.06 12.66,35.83 0,0 -18.28,-75.96 48.41,-106.25z"/></g></svg>